<mxfile host="app.diagrams.net" modified="2024-01-15T11:33:44.459Z" agent="Mozilla/5.0 (Windows NT 10.0; Win64; x64) AppleWebKit/537.36 (KHTML, like Gecko) Chrome/120.0.0.0 Safari/537.36" version="22.1.18" etag="dFum4F87wAqm3JSLaAge" type="github">
  <diagram name="Page-1" id="9LYhtHNzlx6w7om8dAIv">
    <mxGraphModel>
      <root>
        <mxCell id="0" />
        <mxCell id="1" parent="0" />
      </root>
    </mxGraphModel>
  </diagram>
</mxfile>
